<?xml version="1.0" standalone="no"?>
<!DOCTYPE svg PUBLIC "-//W3C//DTD SVG 20010904//EN"
 "http://www.w3.org/TR/2001/REC-SVG-20010904/DTD/svg10.dtd">
<svg version="1.0" xmlns="http://www.w3.org/2000/svg"
 width="260.000000pt" height="260.000000pt" viewBox="0 0 260.000000 260.000000"
 preserveAspectRatio="xMidYMid meet">
<metadata>
Created by potrace 1.11, written by Peter Selinger 2001-2013
</metadata>
<g transform="translate(0.000000,260.000000) scale(0.100000,-0.100000)"
fill="#000000" stroke="none">
<path d="M792 2540 c-38 -24 -39 -33 -7 -85 29 -47 31 -72 9 -103 -8 -12 -24
-47 -34 -77 -17 -48 -17 -57 -5 -62 8 -3 15 -18 15 -33 0 -22 -5 -29 -22 -32
-31 -4 -34 -26 -5 -33 16 -4 24 -13 22 -23 -2 -9 -4 -24 -4 -33 -1 -9 -12 -20
-26 -23 -31 -8 -33 -33 -2 -38 33 -4 30 -58 -3 -75 -16 -8 -25 -21 -25 -35 0
-13 -5 -22 -12 -21 -6 2 -14 -5 -17 -15 -14 -45 -57 -238 -61 -275 -3 -23 -8
-62 -11 -86 -4 -24 -7 -67 -8 -95 -1 -28 -7 -60 -13 -71 -7 -12 -10 -55 -9
-105 2 -56 -1 -92 -10 -105 -8 -13 -11 -43 -9 -84 2 -41 -1 -77 -10 -98 -9
-22 -13 -56 -10 -97 3 -43 -1 -71 -11 -92 -11 -20 -13 -43 -9 -75 6 -40 4 -48
-17 -62 -13 -9 -48 -38 -78 -66 l-55 -50 0 -68 c-1 -80 2 -93 21 -93 8 0 17
-6 20 -14 3 -8 13 -12 25 -9 11 3 19 0 19 -6 0 -7 4 -9 10 -6 6 3 10 1 10 -5
0 -6 4 -8 10 -5 5 3 10 2 10 -2 0 -5 10 -10 22 -10 13 -1 28 -9 34 -17 6 -9
14 -13 17 -9 4 3 13 0 22 -7 8 -7 15 -9 15 -5 0 4 6 2 13 -4 8 -6 17 -8 20 -4
4 3 7 1 7 -5 0 -7 3 -11 8 -11 22 4 42 -2 37 -11 -3 -6 1 -7 9 -4 9 3 16 2 16
-4 0 -6 9 -8 20 -5 12 3 20 0 20 -7 0 -7 8 -10 20 -7 11 3 20 2 20 -3 0 -4 11
-5 25 -2 17 3 27 -1 31 -13 5 -13 9 -14 15 -3 6 8 9 9 9 1 0 -6 9 -9 20 -6 12
3 20 0 20 -7 0 -7 6 -10 14 -7 7 3 19 0 26 -6 10 -9 11 -9 5 3 -7 12 -6 13 7
3 8 -7 18 -10 21 -6 4 3 7 1 7 -5 0 -6 9 -9 20 -7 11 2 20 0 20 -6 0 -5 5 -9
11 -9 5 0 7 5 3 11 -4 8 -1 8 12 1 11 -5 29 -8 42 -6 13 2 21 1 18 -4 -2 -4 4
-8 15 -8 10 0 19 4 19 9 0 4 5 5 11 1 6 -4 52 -9 103 -11 50 -3 97 -10 105
-16 12 -10 13 -9 7 2 -7 10 -3 12 14 6 15 -5 20 -4 16 4 -5 7 -1 9 8 5 9 -3
13 -11 9 -18 -5 -8 -3 -8 8 0 8 6 37 11 64 12 28 0 57 2 65 4 9 2 14 -3 12
-12 -2 -13 -1 -13 10 0 8 9 29 15 53 14 22 0 48 4 59 9 13 7 16 6 11 -3 -6 -9
-3 -9 13 -1 27 14 35 14 26 -2 -5 -7 -1 -7 10 2 15 13 19 13 27 0 7 -12 9 -12
9 1 0 11 9 15 28 14 15 -1 33 3 40 9 8 6 12 6 12 -3 0 -10 3 -10 15 0 8 6 20
8 26 4 8 -5 9 -3 4 6 -5 8 -1 18 10 27 11 7 16 13 12 13 -4 0 1 9 10 19 9 11
21 17 26 14 6 -3 7 -1 3 6 -4 6 -3 18 3 25 6 7 11 49 13 94 l2 81 -47 69 c-28
41 -61 77 -82 88 -22 11 -33 24 -30 32 17 44 16 61 -4 81 -12 12 -28 21 -36
21 -19 0 -29 41 -20 83 16 76 12 100 -20 116 -16 9 -31 16 -33 17 -1 0 -5 19
-8 42 -4 32 -2 44 15 61 38 38 16 100 -38 104 -31 2 -57 97 -27 97 8 0 19 14
25 32 9 25 8 36 -4 55 -9 12 -22 24 -30 24 -8 1 -20 2 -27 3 -6 0 -16 14 -21
29 -8 24 -5 32 12 48 16 15 20 28 16 50 -6 31 -4 32 47 43 19 4 26 11 22 21
-4 8 -2 15 2 15 9 0 133 -24 184 -35 14 -3 54 -8 88 -12 60 -6 67 -9 112 -55
55 -55 84 -61 120 -23 18 19 24 37 24 70 0 77 -51 101 -129 61 -41 -21 -56
-22 -90 -6 -16 8 -125 30 -275 56 -52 10 -58 15 -65 55 -8 45 -24 55 -86 58
-16 1 -25 21 -35 81 -3 14 -10 43 -16 65 -7 22 -12 44 -12 50 -1 8 -28 26 -58
37 -3 2 -9 15 -13 30 -6 23 -3 27 24 33 40 8 40 31 1 40 -26 6 -30 11 -30 41
0 27 4 34 20 34 27 0 25 28 -2 32 -17 2 -23 11 -25 36 -2 22 2 32 11 32 20 0
2 72 -29 118 -13 19 -22 39 -19 44 8 13 42 9 51 -6 18 -31 105 -24 138 11 18
20 29 25 39 18 56 -42 71 -48 104 -47 49 2 93 48 90 94 -4 44 -48 88 -90 88
-38 0 -98 -33 -98 -54 0 -26 -30 -27 -54 -1 -13 14 -25 23 -27 21 -2 -2 -21
-6 -42 -9 -23 -3 -50 -16 -67 -32 -23 -22 -34 -26 -59 -20 -30 6 -30 7 -16 35
14 27 14 30 -11 49 -15 12 -30 21 -34 21 -4 0 -20 -18 -35 -40 -29 -42 -35
-46 -51 -31 -37 34 -187 34 -279 0 l-59 -22 -20 25 c-12 14 -30 37 -41 51
l-21 26 -32 -19z"/>
</g>
</svg>
